<?xml version="1.0" standalone="no"?>
<!DOCTYPE svg PUBLIC "-//W3C//DTD SVG 20010904//EN"
 "http://www.w3.org/TR/2001/REC-SVG-20010904/DTD/svg10.dtd">
<svg version="1.0" xmlns="http://www.w3.org/2000/svg"
 width="1200.000000pt" height="907.000000pt" viewBox="0 0 1200.000000 907.000000"
 preserveAspectRatio="xMidYMid meet">
<metadata>
Created by potrace 1.16, written by Peter Selinger 2001-2019
</metadata>
<g transform="translate(0.000000,907.000000) scale(0.100000,-0.100000)"
fill="#000000" stroke="none">
<path d="M0 5469 l0 -3600 202 5 c112 3 193 3 181 0 -19 -4 -23 -12 -23 -41 0
-45 -61 -123 -96 -123 -13 0 -24 -5 -24 -10 0 -6 -11 -15 -25 -20 -28 -11 -32
-25 -10 -34 10 -4 15 -20 15 -51 0 -41 2 -45 24 -45 l24 0 7 -164 7 -165 27
-9 c14 -6 34 -13 44 -16 9 -3 20 -14 24 -23 11 -29 28 -41 64 -45 27 -2 35 -8
37 -26 2 -12 7 -20 12 -17 5 3 11 1 15 -5 4 -6 -5 -10 -20 -10 -27 0 -85 -48
-85 -69 0 -6 -7 -11 -15 -11 -18 0 -19 -14 -3 -43 6 -12 12 -47 12 -77 1 -49
5 -59 34 -88 19 -17 38 -32 43 -32 5 0 9 -4 9 -10 0 -5 10 -10 22 -10 12 0 53
-14 92 -31 39 -18 85 -38 103 -46 18 -7 66 -15 108 -16 41 -1 75 -5 75 -8 0
-4 15 -10 33 -13 19 -3 45 -18 58 -32 34 -36 70 -53 94 -43 11 4 46 8 77 8 47
1 62 -3 83 -23 52 -48 38 -157 -23 -183 -54 -23 -82 -26 -82 -9 0 9 -4 16 -10
16 -6 0 -10 -33 -10 -80 0 -47 4 -80 10 -80 15 0 12 -26 -5 -40 -10 -8 -15
-31 -15 -66 0 -30 -4 -54 -10 -54 -5 0 -10 -7 -10 -15 0 -13 31 -15 216 -15
132 0 213 4 209 9 -3 6 -26 20 -50 32 -51 26 -79 66 -87 126 -5 36 -2 46 23
74 28 31 31 32 100 31 61 -2 77 -6 113 -32 49 -35 80 -83 73 -111 -3 -10 -1
-19 4 -19 5 0 9 -7 9 -15 0 -18 47 -65 65 -65 8 0 15 -7 15 -15 0 -12 17 -15
90 -15 73 0 90 3 90 15 0 8 6 15 14 15 18 0 76 72 96 120 24 54 12 136 -23
164 -23 19 -27 29 -27 74 0 50 1 52 40 72 22 11 40 27 40 35 0 8 4 15 9 15 5
0 20 17 32 37 13 21 26 40 30 43 3 3 12 22 20 43 10 29 11 44 1 70 -7 18 -12
50 -12 70 0 20 -11 74 -24 119 -13 46 -27 122 -31 171 -4 48 -11 87 -16 87 -5
0 -9 -10 -9 -22 -1 -22 -1 -22 -12 -4 -8 15 -8 21 0 24 19 6 14 36 -8 50 -26
16 -26 32 0 32 11 0 20 -5 20 -11 0 -24 59 -69 89 -69 31 0 31 1 31 51 0 28
-5 60 -12 72 -6 12 -11 32 -12 46 -1 16 -8 25 -21 27 -11 2 -26 12 -34 23 -7
12 -20 21 -28 21 -8 0 -23 10 -33 23 -18 21 -19 21 -26 3 -5 -12 -3 -21 4 -24
7 -2 12 -21 12 -43 0 -35 -3 -39 -25 -39 -19 0 -25 -5 -25 -22 0 -19 -2 -20
-13 -8 -8 8 -22 36 -31 63 -10 26 -23 47 -30 47 -7 0 -23 18 -36 40 -14 22
-31 40 -37 40 -7 0 -13 3 -13 8 0 4 -17 16 -37 27 -21 10 -46 26 -56 34 -12
10 -39 14 -91 13 -71 -2 -76 -1 -106 29 -17 17 -29 38 -26 45 3 8 0 11 -10 7
-11 -4 -14 5 -14 39 0 45 -21 78 -48 78 -7 0 -12 4 -12 9 0 5 -10 11 -22 14
-13 2 -31 8 -40 12 -12 5 -18 3 -18 -6 -1 -23 -84 -69 -124 -69 -32 0 -36 -3
-36 -25 0 -14 -4 -25 -10 -25 -5 0 -12 11 -16 25 -4 16 -13 25 -25 25 -10 0
-19 5 -19 10 0 6 -7 10 -15 10 -8 0 -15 -4 -15 -10 0 -6 -34 -10 -83 -10 l-84
0 -13 40 c-11 32 -18 40 -37 40 -25 0 -83 49 -83 69 0 6 -9 11 -20 11 -17 0
-20 7 -20 39 0 37 1 39 38 44 158 22 194 26 250 27 68 0 102 12 102 35 0 8 5
15 11 15 7 0 19 8 28 18 9 10 27 25 41 33 22 14 25 22 22 63 -4 41 -7 46 -28
46 -21 0 -24 4 -24 40 0 36 -2 40 -25 40 -22 0 -25 4 -25 40 0 22 5 40 10 40
6 0 10 18 10 40 0 34 3 40 21 40 20 0 21 3 14 80 l-7 80 41 0 41 0 0 80 0 80
80 0 c58 0 80 -3 80 -13 0 -9 12 -11 40 -9 25 3 40 0 40 -7 0 -6 17 -11 40
-11 33 0 40 -3 40 -20 0 -15 7 -20 26 -20 24 0 83 -51 84 -72 0 -5 9 -8 20 -8
16 0 20 -7 20 -32 0 -63 9 -78 47 -78 19 0 40 -6 47 -12 7 -7 27 -24 44 -38
20 -15 32 -34 32 -49 0 -23 1 -23 80 -16 56 5 80 4 80 -4 0 -7 22 -11 55 -11
54 0 55 -1 70 -37 9 -21 20 -40 25 -43 5 -3 10 -50 11 -104 1 -87 4 -102 26
-135 13 -20 35 -42 49 -49 13 -7 31 -26 39 -42 17 -33 25 -36 44 -17 10 10 19
4 47 -27 29 -34 34 -36 34 -18 0 12 6 22 13 22 8 0 24 11 37 25 13 14 31 25
40 25 9 0 21 5 27 11 15 15 123 25 123 10 0 -6 17 -11 43 -11 79 0 89 -10 125
-121 15 -43 16 -129 2 -129 -5 0 -10 6 -10 13 0 7 -21 20 -47 30 -46 17 -47
17 -71 -5 -19 -19 -23 -30 -18 -59 7 -43 34 -100 55 -116 9 -6 13 -15 9 -18
-9 -10 69 -85 88 -85 10 0 14 12 14 40 0 29 -4 40 -15 40 -12 0 -15 14 -15 70
l0 70 39 0 c30 0 46 -7 69 -30 17 -16 35 -30 41 -30 6 0 11 -4 11 -9 0 -12 59
-71 71 -71 5 0 9 -6 9 -12 0 -7 25 -40 55 -73 30 -33 55 -63 55 -67 0 -5 7 -8
15 -8 8 0 15 -4 15 -10 0 -6 28 -10 64 -10 36 0 68 5 71 10 3 6 15 10 26 10
10 0 19 6 19 13 0 7 9 18 20 25 11 7 20 23 20 36 0 13 9 35 20 49 29 36 29
153 1 162 -11 3 -22 12 -25 20 -3 8 -12 15 -21 15 -8 0 -15 7 -15 15 0 8 -9
19 -20 25 -10 6 -24 28 -30 50 -10 36 -30 56 -30 29 0 -5 -5 -7 -11 -3 -8 4
-8 9 0 17 15 15 14 27 -2 27 -8 0 -20 18 -27 40 -7 22 -19 40 -27 40 -7 0 -13
4 -13 9 0 5 36 12 80 16 76 7 80 8 80 31 0 13 -4 24 -10 24 -5 0 -10 18 -10
40 0 22 5 40 10 40 6 0 10 31 10 73 0 70 -22 136 -61 183 -14 17 -96 19 -101
2 -3 -7 -20 4 -43 27 -32 32 -39 44 -36 72 3 39 50 122 69 123 6 0 12 6 12 13
1 16 41 62 63 70 9 3 17 13 17 21 0 7 8 16 19 19 13 3 22 21 31 58 16 66 28
79 74 79 20 0 36 4 36 8 0 12 74 1 82 -12 4 -6 40 -11 85 -12 145 -2 153 -3
153 -19 0 -8 5 -15 11 -15 5 0 20 -21 32 -46 38 -80 41 -84 62 -84 12 0 30 -9
42 -19 11 -10 38 -28 59 -40 25 -13 32 -20 20 -21 -17 0 -17 -1 -2 -25 9 -13
16 -31 16 -39 0 -8 4 -16 8 -18 4 -1 18 -20 31 -40 12 -21 27 -38 32 -38 5 0
9 -7 9 -15 0 -8 8 -15 17 -15 9 0 28 -11 42 -24 19 -18 39 -26 74 -27 26 -2
47 -6 47 -9 0 -10 73 -30 108 -30 17 0 32 -4 34 -10 2 -6 17 -6 43 1 71 18 70
17 51 37 -26 30 -19 42 23 42 22 0 41 5 43 12 3 8 14 3 30 -15 24 -26 48 -36
48 -19 0 5 16 16 36 25 23 11 34 23 33 35 -2 9 1 41 5 69 l8 53 38 0 c37 0
124 -22 168 -43 18 -9 25 -8 33 3 8 12 12 12 16 2 6 -16 50 -16 56 1 4 8 6 7
6 -3 1 -19 62 -43 85 -34 8 3 29 1 45 -4 18 -6 31 -7 33 -1 2 5 38 12 81 15
l77 7 0 -27 c0 -14 5 -26 10 -26 6 0 10 -20 10 -45 0 -47 27 -114 46 -115 7 0
14 -9 17 -20 3 -11 14 -20 25 -20 20 0 52 29 52 48 0 7 3 12 8 12 4 0 16 14
27 30 11 16 24 30 28 30 5 0 26 18 48 41 21 22 43 37 49 34 6 -4 9 -2 8 3 -2
6 25 40 59 76 35 37 63 70 63 75 0 4 13 21 30 37 16 16 30 35 30 42 0 6 6 12
14 12 8 0 22 10 30 22 13 18 18 20 28 10 10 -10 9 -19 -5 -43 -9 -17 -17 -37
-17 -44 0 -8 -9 -30 -21 -49 -11 -19 -22 -47 -25 -63 -2 -15 -18 -55 -33 -88
-16 -33 -37 -85 -46 -115 -10 -30 -21 -59 -26 -64 -5 -6 -9 -16 -9 -24 0 -7
-7 -20 -15 -29 -9 -8 -19 -28 -22 -44 -4 -20 -12 -29 -24 -29 -13 0 -19 -7
-19 -23 0 -13 -9 -33 -21 -46 -16 -17 -20 -31 -16 -59 5 -44 39 -138 56 -155
6 -6 11 -20 11 -31 0 -30 31 -106 43 -106 6 0 36 -17 67 -39 30 -21 71 -42 90
-46 19 -4 48 -18 65 -30 36 -26 119 -65 140 -65 8 0 25 24 39 54 26 57 40 134
57 306 5 58 14 121 19 140 14 48 12 70 -4 70 -7 0 -19 7 -26 15 -9 11 -7 19
12 38 13 13 32 49 43 80 10 31 23 57 27 57 4 0 8 7 8 15 0 8 9 31 19 51 20 36
20 36 26 12 9 -35 0 -193 -14 -253 -7 -27 -14 -71 -16 -96 -4 -56 -15 -110
-25 -124 -4 -5 -11 -31 -14 -57 -4 -26 -11 -50 -17 -53 -5 -4 -9 -23 -9 -43 0
-20 -4 -52 -9 -70 -13 -43 12 -44 34 -1 9 16 24 38 33 48 9 9 28 39 42 65 14
26 33 56 43 66 9 11 17 24 17 30 0 5 4 10 8 10 4 0 13 15 20 33 7 18 20 42 30
53 31 33 88 115 300 432 31 46 40 68 33 75 -6 6 -11 19 -11 29 0 10 -5 18 -11
18 -5 0 -27 11 -47 25 -42 28 -26 33 38 10 84 -30 76 -36 230 195 46 69 91
137 101 152 24 34 24 48 2 48 -69 0 -332 25 -326 31 5 4 102 3 216 -2 136 -5
215 -5 227 1 21 11 480 922 480 951 0 39 -87 43 -246 13 -68 -13 -40 41 45 86
23 12 127 9 186 -6 18 -4 25 1 35 25 17 42 53 51 88 22 71 -57 55 -54 249 -37
98 9 211 16 251 16 40 0 82 5 93 10 22 12 92 3 83 -11 -3 -5 5 -9 18 -9 16 0
19 3 10 9 -22 14 14 23 108 27 87 4 136 21 192 65 18 15 34 20 50 15 45 -12
52 -22 50 -77 -1 -49 2 -55 41 -94 23 -23 50 -46 59 -51 9 -5 45 -36 81 -70
35 -34 71 -65 79 -70 9 -5 56 -45 105 -90 48 -44 106 -96 128 -115 46 -39 111
-98 205 -184 36 -34 83 -76 105 -95 49 -42 173 -151 231 -203 47 -42 64 -41
64 3 0 16 9 74 20 130 25 125 27 282 5 300 -8 7 -15 20 -15 30 0 9 -9 25 -20
35 -30 27 -25 42 28 93 44 44 96 72 134 72 25 0 85 -42 97 -68 15 -32 14 -96
-4 -138 -14 -35 -14 -36 26 -94 22 -33 45 -62 50 -66 5 -3 9 -10 9 -15 0 -9
-39 6 -50 20 -17 20 -104 72 -129 77 -28 6 -32 3 -46 -30 -9 -21 -18 -51 -21
-69 -3 -18 -8 -39 -11 -47 -3 -8 -7 -26 -9 -40 -2 -14 -8 -56 -14 -95 -6 -38
-13 -95 -16 -125 l-6 -55 58 -51 c33 -29 97 -86 144 -128 47 -41 91 -76 99
-76 8 0 40 21 70 48 81 68 91 76 97 69 4 -3 -14 -28 -39 -54 -84 -89 -97 -107
-97 -138 1 -34 15 -104 24 -113 4 -3 48 -11 99 -18 85 -11 95 -10 125 7 43 25
51 24 84 -8 37 -35 35 -60 -6 -122 -19 -28 -37 -63 -41 -79 -3 -16 -19 -42
-36 -57 -28 -27 -30 -28 -42 -10 -16 21 -22 14 -31 -38 -7 -38 -69 -117 -82
-104 -10 10 5 74 21 87 8 7 15 19 15 26 0 8 5 14 10 14 6 0 10 5 10 11 0 6 16
43 35 83 19 40 35 80 35 88 0 22 -21 38 -51 38 -15 0 -51 5 -79 12 -48 11 -54
10 -66 -7 -8 -10 -14 -33 -14 -51 0 -57 -41 -268 -56 -293 -11 -16 -14 -34 -9
-57 8 -45 -2 -74 -25 -74 -27 0 -45 37 -29 56 7 9 18 68 25 132 6 64 20 149
30 187 22 85 25 266 5 305 -7 14 -27 38 -45 53 -105 96 -214 195 -234 214 -29
29 -57 29 -162 -1 -47 -14 -264 -73 -483 -132 -219 -59 -405 -113 -413 -118
-11 -9 -2 -21 49 -63 34 -28 71 -60 82 -70 11 -10 94 -81 185 -158 91 -76 167
-142 170 -145 5 -5 125 -107 175 -149 98 -80 201 -167 205 -171 47 -51 116
-63 195 -35 28 10 41 11 46 3 9 -13 29 -1 29 17 0 14 48 45 69 45 5 0 11 -15
13 -32 3 -32 4 -33 53 -33 48 0 50 1 53 30 6 50 38 75 95 75 l49 0 -7 -47 c-5
-35 -13 -53 -33 -68 -31 -24 -87 -44 -122 -46 -24 -1 -69 -23 -125 -63 -23
-17 -31 -18 -60 -7 -30 10 -38 9 -84 -16 -28 -15 -93 -68 -144 -118 -102 -98
-204 -194 -347 -325 l-93 -84 7 -80 c3 -44 10 -82 15 -85 64 -41 73 -62 41
-89 -17 -15 -20 -35 -24 -182 -8 -227 -15 -287 -34 -295 -8 -3 -17 -3 -19 -1
-20 20 -33 218 -36 546 l-2 175 -50 6 c-42 6 -252 29 -401 44 -34 3 -48 -2
-90 -31 -87 -61 -88 -68 -44 -205 130 -406 195 -638 182 -651 -6 -6 -14 10
-21 39 -7 26 -16 52 -21 58 -4 5 -11 26 -15 45 -4 19 -13 49 -21 65 -12 29
-39 116 -89 295 -66 236 -67 238 -97 242 -23 4 -59 -17 -201 -120 -258 -187
-331 -241 -342 -249 -5 -5 -26 -20 -45 -33 -19 -14 -42 -30 -50 -37 -35 -27
-330 -241 -424 -307 -22 -16 -57 -42 -76 -58 -52 -43 -56 -46 -97 -73 -20 -14
-49 -39 -63 -55 -15 -17 -32 -30 -38 -30 -7 0 -12 -3 -12 -8 0 -4 -18 -18 -40
-32 -22 -14 -40 -30 -40 -36 0 -6 25 -23 55 -39 31 -15 54 -29 53 -30 -2 -2
-42 2 -89 7 -98 12 -122 8 -164 -26 l-30 -25 1283 -1 c1137 0 1282 2 1282 15
0 8 -4 15 -9 15 -12 0 -20 36 -14 60 3 11 10 20 15 20 5 0 21 11 36 25 22 21
33 25 62 20 19 -4 45 -13 58 -21 18 -12 20 -18 12 -34 -7 -14 -8 -26 0 -39 5
-11 10 -29 10 -40 l0 -21 1040 0 1040 0 0 400 0 400 -38 0 c-21 0 -47 7 -58
15 -10 8 -26 15 -35 15 -19 0 -29 20 -29 55 0 17 7 24 30 28 16 4 30 12 30 20
0 7 9 19 20 27 24 17 26 30 5 30 -11 0 -15 11 -15 40 0 39 -1 40 -35 40 -24 0
-35 5 -35 15 0 16 -45 65 -60 65 -21 0 -100 -45 -100 -57 0 -9 -17 -13 -55
-13 -30 0 -55 4 -55 10 0 5 -11 12 -25 16 -28 7 -29 17 -25 192 2 81 5 98 28
133 14 21 32 39 39 39 7 0 13 5 13 10 0 6 26 22 57 35 31 14 72 37 89 50 18
14 35 25 39 25 3 0 34 13 68 30 34 16 80 36 102 43 l40 14 3 2645 2 2644 -96
53 c-53 29 -102 50 -109 47 -8 -3 -19 -23 -26 -45 -10 -35 -9 -42 10 -69 12
-17 34 -33 51 -37 17 -4 30 -10 30 -15 0 -5 12 -13 28 -19 26 -10 25 -10 -8
-5 -19 3 -45 12 -57 20 -26 16 -63 19 -63 4 0 -5 -8 -10 -19 -10 -24 0 -38
-18 -60 -77 -37 -99 -164 -412 -206 -508 -24 -55 -60 -143 -80 -195 -34 -89
-55 -129 -55 -103 0 6 18 53 39 105 22 52 49 124 61 159 12 35 50 134 85 219
130 316 165 412 159 436 -3 13 -10 24 -15 24 -5 0 -28 9 -52 19 -160 73 -193
83 -278 88 -59 4 -93 1 -110 -7 -13 -7 -121 -83 -239 -168 -118 -85 -236 -170
-261 -189 -26 -18 -49 -33 -53 -33 -3 0 -23 -16 -43 -35 -20 -19 -42 -35 -49
-35 -6 0 -18 -7 -25 -17 -8 -9 -37 -31 -66 -50 -43 -27 -53 -39 -59 -71 -4
-20 -12 -48 -19 -62 -28 -57 -27 -111 2 -121 16 -5 205 -190 200 -195 -5 -5
-47 30 -143 121 -41 38 -80 73 -88 77 -10 6 -27 -12 -60 -60 -25 -37 -55 -78
-66 -92 -39 -48 -78 -113 -75 -124 2 -6 18 -60 35 -121 17 -60 44 -153 60
-205 16 -52 48 -155 70 -227 38 -125 42 -133 66 -133 23 0 25 -3 22 -36 -2
-27 -9 -39 -24 -45 -31 -11 -68 11 -72 43 -3 23 -15 32 -74 60 -39 17 -65 34
-59 36 7 2 41 -11 76 -29 36 -18 67 -30 71 -26 4 3 2 23 -3 44 -17 62 -123
426 -132 453 -5 14 -19 60 -32 102 -17 56 -28 76 -38 73 -17 -7 -334 -190
-381 -221 -19 -12 -52 -30 -72 -40 -27 -13 -38 -24 -38 -40 0 -27 -25 -54 -49
-54 -10 0 -27 -11 -39 -25 -36 -41 -82 -28 -82 25 0 36 73 110 108 110 15 0
33 -4 41 -9 9 -6 28 1 56 20 23 16 80 49 126 73 46 24 142 78 213 119 122 70
140 86 194 163 7 11 41 59 76 107 42 59 71 115 89 165 14 43 28 84 32 93 4 11
-44 55 -182 166 -294 234 -279 224 -322 217 -33 -5 -41 -3 -55 17 -20 29 -21
82 -2 98 8 7 42 11 78 11 63 -2 129 7 138 19 3 4 43 17 90 31 47 13 92 27 100
31 17 8 506 171 670 223 57 19 107 40 111 47 3 8 11 24 17 35 8 17 6 32 -12
70 -13 27 -39 90 -60 139 -21 50 -42 98 -47 107 -5 10 -9 26 -9 35 0 11 -16
25 -39 36 -41 18 -61 51 -61 96 0 39 22 55 68 48 66 -11 86 -60 58 -140 -12
-33 -12 -37 1 -35 11 2 34 -40 79 -142 35 -80 67 -153 70 -163 8 -27 64 -77
85 -77 20 0 23 6 44 110 21 105 106 470 140 604 9 33 20 87 25 120 5 34 19
102 29 151 18 80 27 165 18 165 -2 0 -43 -13 -91 -29 -71 -24 -95 -37 -125
-70 -42 -46 -66 -52 -74 -20 -5 17 -11 20 -29 15 -13 -4 -48 -14 -78 -22 -30
-9 -84 -24 -120 -34 -63 -17 -66 -19 -80 -61 -15 -41 -18 -44 -57 -47 -34 -3
-44 1 -61 22 -23 31 -29 31 -54 9 -10 -9 -28 -21 -39 -27 -20 -10 -58 -93
-110 -239 -27 -77 -20 -171 14 -182 19 -6 20 -8 5 -12 -13 -3 -18 -15 -18 -44
0 -21 5 -39 10 -39 6 0 10 -6 10 -13 0 -18 24 -67 33 -67 9 0 9 -95 1 -179 -5
-41 -11 -61 -20 -61 -8 0 -14 -7 -14 -15 0 -8 -4 -15 -9 -15 -5 0 -14 -13 -19
-29 -7 -19 -24 -36 -47 -46 -19 -10 -40 -26 -46 -36 -5 -11 -16 -19 -24 -19
-7 0 -15 -4 -17 -8 -2 -4 -20 -18 -40 -31 -21 -12 -38 -30 -38 -38 0 -12 -8
-15 -40 -10 -21 3 -40 1 -42 -4 -2 -5 -36 -17 -77 -28 -41 -11 -77 -23 -80
-28 -3 -5 -22 -10 -41 -12 -19 -2 -37 -7 -40 -11 -3 -5 -38 -18 -78 -29 -39
-11 -76 -23 -82 -26 -13 -8 -134 -41 -181 -49 -20 -3 -54 -15 -77 -26 -23 -11
-53 -20 -67 -20 -23 0 -63 -17 -75 -31 -6 -8 -71 -23 -87 -21 -15 3 -124 -28
-138 -39 -6 -4 -46 -17 -90 -29 -44 -12 -81 -26 -83 -31 -2 -5 -16 -9 -30 -9
-19 0 -31 -8 -39 -27 -16 -33 -17 -53 -3 -53 6 0 10 -18 10 -40 0 -42 -6 -49
-24 -26 -6 7 -30 16 -53 19 -34 4 -49 0 -70 -16 -16 -12 -32 -25 -38 -29 -59
-46 -155 -126 -175 -145 -68 -68 -84 -37 -20 38 22 26 40 57 40 68 0 11 5 23
11 26 5 4 8 12 7 17 -6 17 -209 10 -229 -8 -8 -8 -35 -14 -58 -14 -23 0 -60
-9 -82 -20 -22 -12 -44 -18 -50 -15 -5 4 -16 1 -24 -5 -9 -7 -43 -12 -80 -11
-73 1 -144 30 -152 62 -3 10 -9 19 -13 19 -4 0 -10 17 -14 39 -3 21 -13 44
-21 51 -8 7 -15 24 -15 39 -1 31 -67 85 -119 96 -19 4 -39 11 -45 16 -6 5 -24
19 -40 32 l-28 23 15 52 16 52 -26 17 c-13 10 -35 27 -46 38 -17 16 -19 20 -7
23 9 1 21 16 28 32 30 67 -9 290 -50 290 -14 0 -18 9 -18 40 l0 40 40 0 40 0
1 -42 c2 -39 2 -38 10 17 4 33 6 86 2 117 -4 43 -1 68 13 102 17 41 23 46 50
46 27 0 32 5 44 40 13 39 40 56 40 25 0 -12 17 -15 94 -15 71 0 98 4 110 15 8
8 32 15 55 15 22 0 46 7 55 15 8 8 21 15 30 15 17 0 36 30 36 57 0 10 10 25
21 33 12 8 27 20 33 26 7 7 76 13 176 16 112 4 186 11 230 23 36 10 103 18
150 19 79 1 86 -1 95 -21 8 -18 18 -23 47 -23 20 0 39 4 42 9 4 5 29 12 56 16
76 11 126 64 123 132 0 7 4 10 9 7 5 -3 15 2 23 12 13 18 15 17 44 -14 29 -30
39 -34 76 -34 35 0 44 4 76 35 19 18 49 39 67 46 17 7 32 17 32 22 0 5 6 9 13
9 7 0 18 5 25 12 7 7 26 17 43 22 22 8 40 26 60 61 15 28 28 56 29 62 0 23 68
83 92 83 15 0 39 17 67 46 40 43 43 49 38 90 -3 34 0 47 14 60 11 9 19 28 19
41 0 12 4 22 8 21 4 -2 22 11 39 29 28 29 30 33 17 55 -7 12 -21 38 -30 56
-10 17 -21 32 -25 32 -5 0 3 11 17 25 20 21 35 25 79 25 39 0 55 4 55 13 0 8
9 22 20 32 11 10 20 28 20 41 0 12 4 34 10 48 l10 26 -5070 0 -5070 0 0 -3601z
m9230 2899 c19 -20 21 -30 15 -83 -7 -61 -19 -87 -39 -84 -6 1 -24 -3 -39 -9
-38 -16 -38 -16 -69 25 -40 52 -38 105 3 144 40 37 98 40 129 7z m-4729 -1520
c30 -12 61 -28 70 -35 25 -21 30 -72 9 -93 -49 -49 -220 31 -220 102 0 25 28
48 59 48 16 0 53 -10 82 -22z m-2063 -49 c23 -13 42 -30 42 -36 0 -7 5 -13 10
-13 6 0 10 -11 10 -24 0 -14 -4 -28 -10 -31 -5 -3 -10 -15 -10 -26 0 -44 -112
-54 -183 -17 -54 29 -82 56 -90 87 -5 19 2 32 29 59 34 34 36 35 98 30 40 -4
77 -14 104 -29z m-478 -249 l0 -40 -60 0 c-33 0 -60 -4 -60 -10 0 -5 -18 -10
-41 -10 -33 0 -40 3 -35 16 3 9 6 31 6 50 l0 34 95 0 95 0 0 -40z m1250 7 c40
-20 72 -76 64 -111 -9 -41 -22 -61 -55 -80 -49 -29 -110 -15 -154 36 -74 85
40 208 145 155z m-1763 -36 c18 -24 15 -93 -5 -117 -26 -31 -68 -54 -99 -54
-27 1 -63 20 -63 34 0 4 -7 14 -15 22 -8 9 -15 24 -15 35 0 31 49 88 84 98 41
11 98 2 113 -18z m681 -180 c9 -5 32 -15 50 -22 70 -26 133 -138 118 -211 -19
-96 -25 -106 -83 -142 -51 -32 -65 -36 -124 -36 -60 0 -70 3 -113 36 -64 48
-96 114 -96 196 0 71 8 108 22 108 5 0 20 13 34 30 34 40 147 64 192 41z
m1408 -146 c38 -19 80 -63 93 -98 22 -57 9 -138 -27 -176 -8 -8 -37 -26 -65
-41 -32 -16 -57 -38 -66 -56 -8 -16 -25 -39 -39 -52 -30 -29 -66 -23 -99 14
-25 28 -29 60 -12 98 9 20 8 33 -5 66 -37 92 -14 180 60 229 53 35 111 41 160
16z m-549 -81 c12 -14 25 -39 28 -55 4 -16 11 -29 16 -29 12 0 12 -147 -1
-155 -5 -3 -10 -21 -11 -38 0 -26 -2 -28 -8 -12 -5 11 -7 23 -5 27 3 4 0 9 -6
13 -6 4 -10 -9 -10 -34 0 -30 -4 -41 -15 -41 -10 0 -15 -10 -15 -28 0 -23 -8
-33 -50 -55 -95 -51 -161 -27 -244 88 -8 11 -18 16 -22 12 -5 -4 -3 -12 5 -16
9 -6 6 -14 -15 -30 -37 -29 -94 -26 -110 6 -6 13 -18 31 -27 41 -20 22 -23 62
-4 62 7 0 18 9 25 20 7 11 19 20 27 20 8 0 20 9 27 20 8 12 24 20 38 20 17 0
40 14 65 40 21 22 44 40 50 40 5 0 16 9 22 19 7 11 26 22 43 26 17 4 34 13 37
21 3 8 16 14 29 14 15 0 24 6 24 15 0 11 11 15 42 15 33 0 47 -6 65 -26z
m7948 -325 c88 -80 166 -153 174 -163 8 -9 28 -16 51 -16 40 0 50 -11 50 -55
0 -32 -34 -51 -66 -36 -23 10 -28 20 -25 52 1 9 -22 38 -51 64 -108 98 -303
287 -312 302 -15 28 14 4 179 -148z m-7082 -123 c9 -7 17 -18 17 -25 0 -6 8
-11 18 -11 9 -1 35 -19 57 -40 22 -22 43 -40 47 -40 5 0 8 -6 8 -13 0 -7 11
-37 25 -65 14 -29 30 -74 35 -100 14 -61 17 -65 66 -84 38 -15 43 -15 83 3 24
10 51 19 62 19 10 0 21 5 24 10 9 14 25 12 25 -2 0 -7 17 -24 38 -38 20 -14
41 -30 45 -37 4 -7 12 -13 17 -13 6 0 22 -13 37 -29 28 -28 29 -28 66 -14 20
8 37 21 37 29 0 8 5 14 11 14 6 0 23 9 37 21 l27 21 6 -24 c5 -18 10 -8 28 49
12 40 28 79 36 87 8 8 15 21 15 29 0 8 7 17 15 21 8 3 15 10 15 16 0 5 12 24
27 40 22 25 34 30 73 30 30 0 52 6 60 15 7 8 28 15 47 15 21 0 41 7 51 18 14
15 28 18 75 14 55 -4 58 -5 77 -42 11 -21 24 -41 30 -45 16 -10 12 -56 -7 -77
-9 -10 -20 -43 -24 -74 -4 -31 -15 -64 -23 -73 -9 -10 -16 -27 -16 -39 0 -12
-6 -22 -14 -22 -16 0 -42 -36 -48 -65 -2 -11 -9 -20 -15 -20 -13 0 -83 -102
-83 -120 0 -6 -17 -27 -37 -47 -32 -31 -47 -38 -95 -42 -52 -5 -60 -3 -83 20
-14 13 -25 31 -25 39 0 8 -7 15 -15 15 -11 0 -15 -11 -15 -40 0 -29 4 -40 15
-40 11 0 15 -11 15 -40 0 -32 -4 -40 -18 -40 -9 0 -22 -8 -29 -18 -23 -38
-193 0 -193 43 0 7 -7 15 -15 19 -8 3 -15 12 -15 21 0 8 -4 15 -9 15 -5 0 -11
8 -15 18 -3 9 -10 24 -15 32 -5 8 -12 23 -15 32 -3 10 -20 20 -40 24 -20 3
-36 10 -36 15 0 5 -7 9 -15 9 -8 0 -15 7 -15 15 0 8 -7 15 -16 15 -12 0 -14
-5 -8 -17 4 -10 8 -34 9 -53 4 -55 22 -122 37 -131 7 -5 30 -9 51 -9 34 0 37
3 38 28 1 21 3 17 11 -16 10 -44 51 -84 119 -114 16 -7 29 -19 29 -25 0 -8 15
-13 40 -13 22 0 40 -5 40 -11 0 -18 25 -37 56 -42 16 -3 7 -4 -21 -3 -42 1
-53 -2 -71 -24 -19 -23 -28 -25 -85 -23 -121 5 -204 19 -247 42 -38 21 -46 22
-75 10 -17 -7 -34 -16 -37 -19 -5 -6 -81 -43 -110 -53 -10 -4 -7 -6 8 -6 43
-2 21 -19 -30 -23 -60 -6 -78 -2 -78 18 0 13 -12 18 -33 15 -4 -1 -22 5 -41
13 -18 7 -52 17 -75 21 -25 4 -41 12 -41 21 0 8 -10 14 -24 14 -14 0 -28 5
-31 10 -4 6 -12 10 -18 8 -21 -4 -87 25 -87 38 0 7 -13 27 -29 44 -24 27 -41
36 -73 39 -5 1 -8 10 -8 20 0 12 -11 23 -32 30 -38 14 -98 4 -98 -15 0 -8 -10
-14 -24 -14 -13 0 -31 -3 -40 -6 -10 -4 -16 -1 -16 8 0 14 -67 41 -81 33 -3
-3 -21 0 -37 6 -28 9 -34 8 -59 -15 -42 -40 -77 -35 -114 17 -33 46 -34 53 -6
162 9 33 19 89 23 125 4 35 13 71 21 78 7 7 13 20 13 28 0 8 11 41 25 74 14
33 25 75 25 95 0 24 4 35 15 35 8 0 15 5 15 11 0 5 5 7 11 3 8 -4 7 -9 -2 -15
-10 -6 -1 -14 31 -28 39 -17 47 -18 71 -5 15 7 34 22 41 33 7 10 31 27 53 38
22 12 49 31 60 43 11 13 38 31 60 41 22 10 47 23 55 28 15 9 63 28 125 49 46
15 206 14 228 -2z m-3309 -268 c24 -12 27 -17 22 -48 -3 -19 -10 -36 -16 -38
-20 -7 -7 -86 14 -83 25 4 35 -3 51 -33 18 -32 18 -36 2 -78 -10 -25 -26 -54
-37 -66 -11 -12 -20 -26 -20 -32 0 -17 -81 -8 -93 11 -12 19 -3 62 18 83 19
19 32 76 17 76 -6 0 -23 24 -38 54 -27 54 -27 54 -8 83 10 15 17 32 16 37 -2
4 0 17 3 27 7 22 30 24 69 7z m4351 -749 c17 -11 38 -22 48 -25 9 -4 17 -12
17 -19 0 -7 5 -15 11 -17 6 -2 14 -26 16 -54 5 -47 3 -51 -29 -76 -45 -34 -98
-35 -150 -1 -41 28 -58 67 -58 140 0 36 4 45 28 57 37 20 81 19 117 -5z m6694
-575 c42 -9 56 -35 41 -79 -13 -39 -43 -65 -75 -65 -33 0 -65 36 -65 73 0 37
7 49 35 65 24 14 24 14 64 6z m-7351 -795 c2 -5 9 -9 16 -9 18 0 58 -48 89
-106 32 -60 33 -71 10 -96 -17 -19 -83 -26 -83 -8 0 6 -14 10 -30 10 -28 0
-68 16 -80 32 -3 4 -28 9 -55 12 -28 2 -54 4 -59 5 -11 1 2 52 20 72 8 8 14
25 14 37 0 13 14 31 38 47 30 21 44 25 77 19 22 -3 42 -10 43 -15z m-920 -102
c6 -5 12 -15 12 -23 0 -7 7 -20 16 -29 9 -9 13 -23 10 -32 -4 -9 -2 -20 5 -23
7 -5 -7 -20 -35 -40 -25 -19 -46 -37 -46 -41 0 -17 -65 12 -87 38 -27 34 -33
123 -8 123 8 0 15 7 15 15 0 32 81 41 118 12z m2832 -177 c10 -10 26 -43 35
-72 18 -62 45 -98 73 -98 11 0 25 -7 32 -15 7 -8 19 -15 27 -15 8 0 30 -12 50
-27 28 -22 44 -26 82 -24 45 2 47 1 69 -37 12 -22 22 -44 22 -50 0 -10 -59
-42 -78 -42 -6 0 -26 22 -46 50 -27 37 -45 52 -74 60 -22 5 -50 18 -63 28 -44
33 -83 43 -165 40 l-79 -3 -9 74 c-7 65 -6 76 11 100 20 27 58 51 81 51 6 0
21 -9 32 -20z m-3137 -785 c17 -11 24 -26 25 -54 2 -33 -3 -47 -32 -78 -33
-37 -85 -54 -111 -35 -16 11 -34 71 -24 78 5 3 9 18 9 35 0 16 5 29 10 29 6 0
19 9 30 20 24 24 62 26 93 5z m3062 -185 c-3 -6 1 -7 9 -4 17 7 22 -11 6 -21
-5 -3 -10 -19 -10 -35 0 -16 -10 -44 -22 -64 -18 -28 -30 -35 -54 -36 -17 0
-37 -7 -44 -15 -18 -22 -43 -19 -38 3 4 15 1 18 -18 14 -22 -4 -24 -1 -24 37
0 34 3 41 19 41 16 0 20 8 23 38 3 35 5 37 43 43 67 10 117 10 110 -1z m-4767
-425 c18 -39 15 -52 -24 -95 -48 -52 -83 -54 -113 -6 -12 18 -21 39 -21 46 0
7 9 28 21 46 19 32 24 34 73 34 47 0 54 -3 64 -25z m10132 -662 c0 -5 18 -19
40 -33 22 -13 40 -28 40 -32 0 -4 6 -8 13 -8 8 0 24 -11 37 -25 13 -14 26 -23
28 -20 11 11 43 -30 53 -67 16 -60 4 -97 -37 -114 -54 -23 -117 -18 -148 11
-14 13 -26 27 -26 30 0 4 -9 18 -20 32 -14 19 -20 41 -20 79 0 43 -4 56 -20
66 -14 9 -20 24 -20 50 0 38 0 38 40 38 22 0 40 -3 40 -7z"/>
<path d="M11915 8649 c-27 -4 -59 -12 -70 -18 -11 -5 -40 -17 -65 -25 -25 -8
-75 -28 -112 -45 -36 -17 -70 -31 -75 -31 -32 0 -66 -135 -128 -510 -8 -47
-32 -191 -55 -320 -66 -376 -65 -364 -45 -394 23 -34 75 -50 93 -27 7 9 72
115 144 236 72 121 162 271 199 333 38 62 69 115 69 117 0 3 29 52 65 110 l65
105 0 240 c0 270 9 245 -85 229z"/>
<path d="M11467 8321 c-10 -38 -17 -82 -17 -97 0 -16 -7 -42 -16 -59 -8 -16
-23 -80 -34 -142 -10 -62 -21 -117 -23 -121 -3 -4 -14 -52 -26 -107 -11 -55
-39 -183 -61 -284 -22 -102 -38 -187 -35 -189 2 -3 18 1 34 7 24 11 30 20 36
59 3 26 13 79 20 117 7 39 27 149 44 245 17 96 40 220 50 275 48 244 66 365
53 365 -5 0 -16 -31 -25 -69z"/>
<path d="M11987 8115 c-5 -11 -67 -119 -139 -240 -72 -121 -166 -280 -209
-353 -44 -72 -79 -134 -79 -137 0 -2 -16 -29 -35 -59 -19 -30 -35 -58 -35 -61
0 -12 26 -4 36 13 6 9 115 153 243 320 l232 303 -3 117 c-2 72 -6 109 -11 97z"/>
<path d="M11914 7744 c-45 -60 -148 -197 -230 -304 -81 -107 -148 -204 -148
-215 -1 -15 22 -28 114 -67 63 -26 123 -46 133 -45 12 1 38 41 79 117 33 63
77 146 99 184 l39 69 -2 185 -3 185 -81 -109z"/>
<path d="M11989 7405 c-4 -5 -35 -64 -69 -130 -35 -66 -69 -129 -77 -140 -22
-32 -16 -43 40 -71 28 -15 65 -35 80 -46 16 -11 30 -18 33 -16 2 3 3 97 2 209
-2 112 -6 200 -9 194z"/>
<path d="M10970 7260 c-58 -20 -112 -40 -120 -43 -8 -3 -103 -35 -210 -71
-301 -101 -432 -147 -465 -161 -16 -7 -65 -23 -107 -36 -43 -13 -80 -30 -83
-38 -7 -17 66 -88 235 -226 95 -78 108 -88 166 -139 23 -20 47 -36 53 -36 10
0 160 105 211 147 8 7 29 23 46 35 17 13 58 43 90 67 33 24 141 104 240 178
l182 134 -46 107 c-43 103 -56 123 -77 121 -5 0 -57 -18 -115 -39z"/>
<path d="M11150 7293 c0 -12 72 -197 80 -206 4 -5 17 -4 28 2 15 8 22 28 30
83 13 86 10 92 -61 113 -56 16 -77 19 -77 8z"/>
<path d="M11320 7193 c-6 -32 -13 -68 -16 -80 -4 -21 -1 -23 35 -23 35 0 44 5
76 45 46 56 41 78 -22 99 -26 9 -50 16 -54 16 -4 0 -13 -26 -19 -57z"/>
<path d="M11446 7127 c-15 -19 -26 -36 -26 -40 0 -3 44 -22 98 -43 53 -20 101
-41 107 -45 5 -5 15 -9 23 -9 8 0 -9 27 -40 63 -30 34 -63 72 -74 85 -27 32
-58 28 -88 -11z"/>
<path d="M8669 4025 c-3 -2 -93 -7 -200 -9 -349 -8 -529 -18 -529 -30 0 -6 45
-47 101 -91 56 -44 110 -88 122 -97 11 -10 26 -18 34 -18 19 0 323 139 344
156 8 8 19 14 23 14 4 0 41 14 83 31 52 22 71 34 61 40 -15 10 -32 11 -39 4z"/>
<path d="M8896 4007 c-19 -14 -23 37 38 -527 75 -686 77 -704 95 -723 14 -14
23 -16 44 -8 15 6 69 22 120 35 50 13 171 47 267 75 96 28 264 77 373 108 108
31 197 59 197 63 0 10 -294 276 -410 371 -65 53 -130 110 -160 139 -14 14 -43
40 -65 59 -22 19 -86 76 -142 128 -56 53 -111 101 -122 109 -11 8 -37 31 -58
52 -21 20 -58 53 -83 72 -25 18 -49 40 -53 47 -10 16 -19 16 -41 0z"/>
<path d="M8770 4003 c-16 -6 -126 -60 -175 -87 -16 -9 -35 -16 -42 -16 -7 0
-85 -32 -173 -72 -116 -51 -164 -77 -170 -93 -4 -11 -9 -84 -11 -161 l-4 -141
50 -43 c28 -23 64 -55 80 -71 17 -15 111 -96 210 -180 99 -84 182 -156 185
-159 3 -3 52 -45 110 -94 58 -49 115 -98 127 -109 13 -11 26 -18 29 -14 5 5
-21 242 -72 647 -24 192 -42 344 -55 460 -6 58 -16 110 -22 116 -16 15 -48 24
-67 17z"/>
<path d="M7814 3918 c-9 -17 -26 -48 -37 -67 -11 -20 -118 -230 -238 -467
l-218 -432 48 -78 c26 -44 66 -110 88 -149 22 -38 68 -116 102 -173 33 -57 61
-107 61 -111 0 -5 6 -14 14 -20 11 -10 15 -8 20 6 6 21 83 610 90 693 2 30 14
116 26 190 25 160 80 585 80 617 0 33 -17 28 -36 -9z m-90 -683 c13 -51 -15
-138 -50 -153 -21 -10 -26 -8 -40 14 -23 35 -20 71 10 125 22 39 30 45 50 42
15 -3 27 -14 30 -28z"/>
<path d="M7881 3913 c-5 -21 -23 -144 -40 -273 -62 -479 -70 -542 -115 -869
-25 -184 -45 -336 -43 -337 2 -2 31 54 65 124 248 514 344 714 390 812 28 60
31 76 37 222 6 127 5 159 -6 171 -35 34 -249 187 -263 187 -9 0 -19 -15 -25
-37z"/>
<path d="M8080 3195 c-55 -113 -100 -208 -100 -210 0 -2 -32 -69 -71 -147
-129 -261 -208 -438 -202 -454 3 -8 13 -12 22 -10 9 3 75 21 146 40 72 19 180
49 240 66 61 17 166 47 235 66 69 19 157 44 195 55 39 11 142 40 229 64 88 25
166 45 173 45 34 0 7 42 -68 106 -45 37 -87 73 -93 79 -6 6 -38 33 -71 60 -49
42 -242 205 -468 399 -27 22 -53 43 -58 44 -5 2 -54 -89 -109 -203z"/>
<path d="M7234 2932 c-13 -9 -234 -344 -263 -400 -10 -19 -9 -23 11 -32 22 -9
299 -63 488 -95 52 -9 105 -18 117 -22 17 -4 23 -1 23 11 0 13 -94 183 -185
334 -6 9 -30 53 -54 97 -24 44 -51 88 -59 98 -15 17 -58 23 -78 9z"/>
<path d="M8775 2644 c-104 -30 -244 -69 -310 -88 -66 -19 -261 -74 -432 -122
-262 -74 -313 -91 -313 -106 0 -21 15 -28 270 -120 107 -38 223 -81 257 -94
34 -13 64 -24 67 -24 3 0 137 -48 298 -106 435 -157 437 -158 465 -145 17 8
22 16 18 33 -2 13 -14 109 -25 213 -62 558 -71 618 -100 614 -3 0 -90 -25
-195 -55z"/>
<path d="M9032 2613 c4 -38 19 -167 34 -288 14 -121 32 -276 40 -345 8 -68 16
-126 19 -128 3 -4 575 14 740 22 39 3 71 9 73 15 2 7 -15 28 -38 49 -24 20
-52 45 -64 55 -33 29 -108 94 -281 242 -88 75 -174 149 -190 164 -31 27 -164
141 -270 230 -33 28 -63 51 -66 51 -3 0 -2 -30 3 -67z"/>
<path d="M6932 2443 c-22 -4 -77 -69 -104 -123 -6 -14 -44 -74 -84 -135 -39
-60 -84 -132 -99 -160 -15 -27 -33 -57 -41 -66 -8 -8 -14 -21 -14 -27 0 -6 -6
-15 -14 -19 -7 -4 -28 -33 -47 -63 -18 -30 -36 -57 -39 -60 -9 -8 -60 -89 -60
-95 0 -3 -18 -29 -39 -58 -23 -31 -43 -72 -50 -102 -6 -27 -13 -60 -17 -72 -5
-18 -1 -25 17 -32 13 -5 58 -25 99 -44 106 -49 197 -91 255 -117 28 -12 82
-37 120 -55 109 -50 110 -51 133 -13 10 18 54 101 97 183 43 83 99 191 125
240 26 50 102 198 170 330 68 132 127 246 133 253 14 18 6 23 -98 67 -49 21
-124 54 -165 73 -125 58 -231 102 -243 101 -7 -1 -22 -4 -35 -6z"/>
<path d="M7075 2441 c6 -5 103 -50 217 -101 l207 -92 61 33 c33 17 60 35 60
38 -1 21 -26 31 -105 45 -50 8 -155 28 -235 45 -205 41 -216 43 -205 32z"/>
<path d="M7575 2259 c-74 -38 -56 -8 -374 -639 l-244 -485 18 -97 c9 -54 21
-98 26 -98 8 0 99 181 319 635 43 88 135 277 204 419 147 301 150 317 51 265z"/>
<path d="M7745 2250 c11 -11 183 -142 381 -292 199 -150 444 -336 544 -412
135 -102 187 -137 197 -130 8 5 50 95 93 201 l78 191 -202 72 c-191 69 -291
105 -471 169 -44 16 -138 50 -210 76 -143 52 -416 145 -424 145 -3 0 3 -9 14
-20z"/>
<path d="M7704 2218 c3 -13 17 -79 31 -148 14 -69 34 -163 44 -210 11 -47 36
-164 57 -260 20 -96 37 -176 38 -177 1 -1 150 -15 584 -52 257 -22 319 -24
343 -14 16 7 29 18 29 25 -1 7 -38 41 -83 75 -45 34 -91 69 -102 78 -11 9 -78
60 -150 113 -71 54 -188 142 -260 197 -71 54 -175 133 -230 174 -55 42 -104
79 -110 84 -51 40 -185 137 -189 137 -4 0 -4 -10 -2 -22z"/>
<path d="M7633 2163 c-17 -38 -91 -192 -163 -343 -73 -151 -154 -320 -180
-375 -26 -55 -75 -158 -110 -230 -182 -378 -176 -354 -100 -410 28 -21 63 -49
78 -64 48 -46 82 -71 95 -71 6 0 46 43 87 96 112 143 211 269 367 466 l141
177 -35 163 c-18 90 -40 195 -47 233 -34 176 -90 425 -95 425 -4 0 -21 -30
-38 -67z"/>
<path d="M9275 1830 c-179 -7 -210 -12 -220 -38 -3 -8 -37 -96 -76 -195 -39
-98 -68 -181 -66 -184 5 -4 88 29 197 79 36 16 99 43 140 60 41 16 147 61 235
100 207 91 299 131 358 156 26 12 47 23 47 26 0 7 -379 4 -615 -4z"/>
<path d="M9750 1735 c-107 -46 -215 -93 -240 -104 -25 -10 -166 -71 -315 -135
-148 -64 -271 -120 -273 -124 -1 -5 6 -16 16 -25 19 -17 112 -28 397 -45 142
-9 138 -10 205 52 21 20 41 36 43 36 2 0 28 24 58 53 30 28 73 68 94 87 22 19
85 76 141 125 55 50 113 100 128 113 36 30 29 47 -20 49 -29 1 -88 -20 -234
-82z"/>
<path d="M5795 1498 c-14 -21 -14 -23 0 -26 9 -2 23 5 30 15 13 16 14 13 15
-34 l0 -53 40 0 c39 0 40 1 40 35 0 24 5 35 15 35 11 0 15 -11 15 -40 0 -29
-4 -40 -15 -40 -11 0 -15 -11 -15 -40 0 -22 -4 -40 -10 -40 -5 0 -10 -18 -10
-40 0 -22 5 -40 10 -40 6 0 10 -7 10 -15 0 -8 11 -25 25 -39 18 -18 25 -36 25
-65 0 -29 5 -41 18 -44 9 -3 -2 -5 -25 -6 -24 0 -43 4 -43 9 0 6 -17 -7 -38
-30 -32 -33 -45 -40 -78 -40 -64 0 -78 -8 -104 -61 l-24 -50 -51 3 c-32 1 -62
-4 -82 -15 -18 -9 -48 -17 -68 -17 -28 0 -35 -4 -35 -20 0 -15 -7 -20 -28 -20
-16 0 -34 -8 -42 -20 -12 -17 -26 -20 -91 -20 -63 0 -80 -4 -100 -21 -13 -12
-41 -32 -61 -45 -36 -23 -55 -55 -43 -74 8 -13 205 -13 205 0 0 6 17 10 38 10
39 0 253 26 287 34 11 3 42 8 69 11 37 5 56 15 82 41 24 23 44 34 64 34 36 0
70 -31 70 -64 0 -18 13 -32 53 -57 28 -19 57 -37 62 -42 80 -63 187 -134 258
-171 48 -26 119 -67 157 -91 38 -25 72 -45 75 -45 4 0 34 -21 67 -46 99 -75
200 -134 231 -134 33 0 67 -16 84 -40 16 -23 104 -33 152 -18 30 9 40 19 48
47 7 23 8 40 2 46 -5 5 -9 30 -9 56 0 26 -4 51 -10 54 -5 3 -10 25 -10 48 0
43 -44 307 -60 362 -5 17 -10 48 -12 70 -1 29 -10 47 -30 67 -15 14 -28 36
-28 47 0 27 -22 49 -122 124 -42 31 -83 63 -90 70 -7 6 -38 31 -69 54 -31 23
-62 47 -70 55 -8 7 -30 25 -49 38 -19 13 -37 27 -40 30 -13 16 -149 118 -183
138 -21 12 -50 22 -65 22 -14 0 -37 11 -51 23 -35 32 -111 59 -169 59 -26 1
-63 9 -82 18 -19 9 -54 20 -77 24 -36 5 -44 3 -58 -16z"/>
<path d="M7768 1262 c-222 -288 -351 -455 -386 -497 -10 -11 -28 -36 -42 -55
-13 -19 -27 -37 -30 -40 -21 -19 -30 -44 -40 -105 -6 -39 -20 -108 -32 -155
-11 -47 -26 -121 -33 -165 -14 -88 -8 -111 29 -100 12 3 39 11 60 16 22 5 55
22 75 38 20 15 83 59 141 97 120 79 300 205 398 279 37 28 89 66 117 85 27 19
56 40 65 47 20 16 99 73 515 371 141 101 155 112 155 128 0 8 5 22 11 32 9 14
8 26 -2 48 -16 33 5 29 -339 58 -107 10 -268 24 -358 32 -90 7 -173 14 -185
13 -16 0 -48 -34 -119 -127z"/>
<path d="M6491 1277 c19 -17 57 -50 84 -72 27 -22 67 -56 90 -75 22 -19 60
-51 85 -70 53 -41 59 -45 130 -104 30 -25 59 -41 63 -37 5 5 0 52 -9 104 -19
105 -21 109 -101 140 -23 9 -61 25 -85 36 -24 11 -72 32 -108 46 -36 14 -84
35 -107 46 -67 30 -85 24 -42 -14z"/>
<path d="M7035 723 c3 -32 13 -92 20 -133 8 -41 17 -95 20 -120 4 -25 11 -60
17 -79 6 -19 12 -58 13 -85 1 -28 7 -71 14 -96 l13 -45 19 60 c10 33 21 87 25
120 3 33 17 106 30 161 13 56 24 106 24 112 0 11 -64 65 -155 130 l-47 34 7
-59z"/>
<path d="M5719 656 c-3 -3 -36 -10 -74 -15 -123 -19 -296 -53 -460 -92 -88
-20 -175 -40 -192 -44 -39 -8 -44 -35 -10 -58 12 -8 42 -33 67 -56 25 -22 50
-41 57 -41 6 0 13 -4 15 -9 4 -13 123 -90 165 -108 31 -13 73 -13 327 -2 160
6 294 15 299 19 4 3 -8 60 -28 126 -19 65 -43 152 -52 192 -13 61 -21 75 -40
83 -26 9 -67 12 -74 5z"/>
<path d="M5876 621 c-6 -9 51 -257 76 -335 15 -46 12 -44 183 -76 66 -12 158
-30 205 -40 171 -37 317 -62 341 -58 19 2 -1 18 -104 81 -71 42 -130 77 -132
77 -5 0 -184 115 -201 129 -5 4 -30 21 -55 36 -24 16 -101 66 -170 112 -70 46
-129 83 -132 83 -3 0 -8 -4 -11 -9z"/>
<path d="M4695 403 c-15 -64 -37 -98 -74 -115 -21 -10 -43 -18 -49 -18 -7 0
-12 -6 -12 -13 0 -8 -17 -20 -39 -27 -36 -12 -39 -15 -44 -58 -3 -25 -12 -51
-20 -57 -8 -5 -18 -25 -22 -43 -4 -18 -13 -36 -21 -39 -8 -3 -14 -11 -14 -19
0 -12 69 -14 430 -14 l430 0 -10 26 c-17 43 -12 81 10 87 24 6 27 43 5 74 -25
36 -120 83 -167 83 -42 0 -168 54 -168 72 0 4 -5 8 -11 8 -6 0 -26 12 -45 26
-27 21 -121 51 -165 54 -4 0 -10 -12 -14 -27z"/>
<path d="M5837 203 c-1 -1 -112 -6 -246 -12 -152 -7 -249 -15 -257 -22 -20
-17 -17 -56 6 -79 20 -20 31 -20 588 -19 312 0 583 4 602 8 35 8 35 8 -25 20
-74 15 -169 33 -345 66 -74 14 -152 30 -173 36 -30 8 -143 10 -150 2z"/>
<path d="M5871 30 c-383 -4 -495 -8 -499 -18 -3 -9 151 -12 749 -12 549 0 750
3 742 11 -20 20 -327 26 -992 19z"/>
</g>
</svg>
